Coordinates	
version=1	
nRows=167	
nColumns=2	
inDegrees=yes	
endheader	
time	shoulder_elv
1.260407029	23.43595213
1.262250926	23.51933328
1.264094822	23.60196168
1.266550982	23.71084673
1.269007142	23.81838551
1.270851229	23.89823199
1.272695316	23.97731746
1.275147405	24.08128828
1.277599494	24.18390336
1.279443781	24.26018106
1.281288068	24.33568995
1.283736238	24.43472495
1.286184408	24.53239551
1.28802887	24.60507108
1.289873331	24.67697052
1.292317682	24.77104828
1.294762032	24.86375366
1.296606687	24.93279763
1.298451341	25.00105863
1.300891945	25.09015917
1.303332549	25.17788018
1.305177404	25.24326472
1.307022259	25.30785986
1.309459214	25.39196649
1.311896169	25.47468717
1.313741212	25.53638573
1.315586255	25.59728889
1.318019683	25.67638797
1.320453111	25.75409535
1.322298341	25.81208372
1.32414357	25.86927115
1.326573595	25.94335096
1.329003619	26.01603396
1.330849028	26.07028968
1.332694436	26.12373932
1.335121203	26.19279066
1.337547969	26.26044066
1.339393546	26.31094306
1.341239123	26.36063466
1.343662793	26.42465036
1.346086464	26.48726074
1.3479322	26.53399102
1.349777936	26.5799062
1.352198687	26.63888082
1.354619437	26.69644668
1.356465323	26.73938782
1.358311208	26.78150996
1.36072923	26.83543968
1.363147251	26.88795768
1.364993276	26.92709441
1.366839302	26.96540862
1.369254799	27.01429098
1.371670296	27.0617591
1.373516453	27.09707785
1.375362609	27.13157099
1.377775798	27.17540464
1.380188988	27.21782197
1.382035267	27.24931088
1.383881546	27.27997144
1.386292655	27.31875603
1.388703764	27.35612258
1.390550158	27.38377141
1.392396552	27.41058956
1.394805818	27.44432548
1.397215084	27.47664207
1.399061586	27.50044218
1.400908089	27.52340966
1.403315756	27.55209802
1.405723423	27.57936608
1.407570028	27.5993104
1.409416632	27.61842053
1.411822953	27.64206292
1.414229275	27.66428441
1.416075975	27.68036743
1.417922676	27.69561506
1.42032791	27.71421353
1.422733144	27.7313908
1.424579934	27.74360853
1.426426725	27.75499004
1.428831136	27.76854695
1.431235546	27.78068269
1.433082421	27.78903263
1.434929295	27.79654591
1.437333151	27.80506391
1.439737007	27.81216107
1.441583958	27.81664223
1.44343091	27.82028664
1.445834482	27.82376858
1.448238054	27.82583032
1.450085078	27.82644319
1.451932103	27.82621961
1.454335769	27.82466841
1.456739436	27.82169778
1.458586326	27.81844456
1.460433215	27.8143557
1.462837231	27.80777406
1.465241248	27.79977405
1.467088445	27.79265709
1.468935642	27.78470526
1.471339905	27.77309743
1.473744168	27.76007302
1.475591373	27.74909787
1.477438579	27.73728924
1.479843737	27.72065736
1.482248896	27.70261055
1.484096089	27.68778369
1.485943282	27.67212514
1.488349551	27.6504728
1.490755821	27.62740755
1.492603061	27.60873627
1.494450302	27.58923541
1.496857876	27.56256701
1.499265449	27.53448812
1.501112702	27.51198201
1.502959955	27.48864882
1.505369125	27.45696827
1.507778295	27.42387996
1.509625542	27.39755006
1.511472789	27.37039596
1.513883799	27.33370807
1.516294809	27.2956155
1.518142051	27.26547417
1.519989293	27.2345119
1.522402361	27.19282241
1.524815429	27.14973172
1.526662659	27.11579302
1.528509889	27.08103703
1.53092523	27.03435248
1.533340571	26.98627065
1.535187786	26.94855015
1.537035001	26.91001639
1.539452805	26.85834466
1.54187061	26.80527999
1.543717815	26.76379471
1.545565021	26.72150056
1.547985454	26.66485113
1.550405887	26.60681363
1.552253096	26.56158202
1.554100304	26.51554631
1.556523505	26.45393057
1.558946706	26.39093213
1.560793939	26.34197404
1.562641172	26.29221699
1.565067252	26.22564856
1.567493332	26.15770342
1.569340622	26.10503995
1.571187911	26.05158305
1.573616951	25.98007815
1.576045992	25.90720317
1.577893382	25.85085669
1.579740772	25.79372265
1.582172828	25.71730032
1.584604884	25.63951521
1.586452429	25.5795093
1.588299974	25.51872208
1.59073508	25.43740424
1.593170187	25.35473164
1.595017949	25.29109116
1.596865712	25.22667597
1.599303893	25.14048733
1.601742074	25.05295272
1.603590121	24.98570393
1.605438168	24.9176874
1.60787945	24.82665515
1.610320733	24.73428651
1.612169125	24.66345748
1.614017517	24.59186809
